<svg width="41" height="35" viewBox="0 0 41 35" fill="none" xmlns="http://www.w3.org/2000/svg">
<path d="M20.8394 24.7208C21.2176 24.7208 21.5269 25.0199 21.5269 25.3917V26.7159C21.5269 27.0877 21.2176 27.3868 20.8394 27.3868C20.4613 27.3867 20.1528 27.0877 20.1528 26.7159V25.3917C20.1528 25.02 20.4613 24.7209 20.8394 24.7208Z" fill="white" stroke="white" stroke-width="0.1"/>
<path d="M24.334 0.880249L24.5957 0.93103C25.0557 1.03654 26.0503 1.33464 27.0391 2.09216L27.2861 2.29236C28.4781 3.30328 29.1029 4.59201 29.4111 5.84412C31.4209 6.65171 33.2233 7.93236 34.6318 9.55994L34.9014 9.88123C36.2195 11.5056 37.1346 13.4199 37.5576 15.4427L37.5586 15.4467H39.1836L39.3193 15.4525C39.6327 15.4824 39.9236 15.6162 40.1494 15.8363L40.2402 15.9349C40.4405 16.1725 40.5497 16.4677 40.5498 16.7797V22.0795C40.5498 22.816 39.9359 23.4125 39.1836 23.4125H36.6953C35.0318 27.1191 31.6731 29.9753 27.4971 30.9769L27.1768 32.434C26.9757 33.3488 26.1341 34.011 25.1768 34.0111H22.1982C21.0716 34.0109 20.1525 33.1175 20.1523 32.016V31.3617H14.0459C13.3649 31.3617 12.6847 31.3101 12.0146 31.2123V32.016C12.0144 33.1176 11.0955 34.0111 9.96875 34.0111H7.25781C6.67728 34.011 6.12708 33.7709 5.74316 33.3578L5.58887 33.1703C4.38358 31.5047 0.45021 25.4944 0.450195 18.1049C0.450195 14.8071 1.69955 11.646 3.96875 9.20447L4.38281 8.77869C6.48412 6.70816 9.21274 5.37402 12.1631 4.97498C12.7094 2.99572 14.5654 1.53552 16.7637 1.53552C18.9143 1.53566 20.7349 2.93406 21.3242 4.84802H23.5498V1.54431C23.5498 1.34928 23.6365 1.16383 23.7871 1.0365L23.8457 0.992554C23.9875 0.896689 24.1621 0.85636 24.334 0.880249ZM24.9238 7.50623C24.9237 7.8779 24.6144 8.17712 24.2363 8.17712C23.8584 8.17692 23.55 7.87778 23.5498 7.50623V6.18982H21.5264C21.5255 6.63469 21.457 7.07471 21.3291 7.49744H21.5195C21.8975 7.49764 22.206 7.7967 22.2061 8.16833C22.2061 8.54001 21.8976 8.83903 21.5195 8.83923H12.0078C11.6296 8.83923 11.3203 8.54014 11.3203 8.16833C11.3204 7.79657 11.6296 7.49744 12.0078 7.49744H12.1963C12.0846 7.12778 12.0199 6.74466 12.0049 6.35681C9.47955 6.771 7.15217 7.95044 5.34375 9.73865L4.98633 10.1068C2.94686 12.3009 1.82422 15.1415 1.82422 18.1049C1.82426 25.0966 5.56403 30.8107 6.71094 32.3959L6.76172 32.4574C6.88686 32.5927 7.0632 32.6692 7.25781 32.6693H9.96875C10.3403 32.6693 10.6404 32.3751 10.6406 32.016V25.391C10.6409 25.0194 10.9501 24.7201 11.3281 24.7201C11.7061 24.7202 12.0144 25.0195 12.0146 25.391V29.8539C12.683 29.9627 13.364 30.0199 14.0459 30.0199H20.1523V29.3656C20.1525 28.9939 20.4617 28.6947 20.8398 28.6947C21.2179 28.6948 21.5262 28.994 21.5264 29.3656V32.016C21.5266 32.375 21.8268 32.6692 22.1982 32.6693H25.1768C25.4919 32.6692 25.7672 32.451 25.833 32.1527L27.3506 25.2504L27.3936 25.1215C27.5221 24.8352 27.8426 24.6679 28.166 24.7357L28.2979 24.7767C28.5485 24.8838 28.7115 25.1287 28.709 25.3969L28.6934 25.5326L27.8213 29.4974C32.6855 28.0473 36.174 23.7552 36.4414 18.7328L36.4629 18.598C36.5432 18.2953 36.8327 18.0808 37.1631 18.097L37.3008 18.1176C37.5655 18.1846 37.7657 18.4012 37.8066 18.6664L37.8135 18.8021C37.7534 19.9315 37.5457 21.0271 37.21 22.0707H39.1758V16.7885H37.5488C36.9453 16.7885 36.413 16.3912 36.2412 15.8265L36.2119 15.7113C35.832 13.8946 35.009 12.1751 33.8242 10.7152L33.583 10.4271C32.4977 9.17297 31.1518 8.1481 29.6523 7.42322C29.6703 7.68094 29.6797 7.93057 29.6797 8.16833C29.6797 8.54014 29.3704 8.83923 28.9922 8.83923C28.6142 8.83903 28.3057 8.54001 28.3057 8.16833C28.3056 6.18218 27.7408 4.85274 27.0293 3.96521C26.3436 3.10998 25.5184 2.66225 24.9238 2.43298V7.50623ZM16.7637 2.87732C14.8936 2.87732 13.3742 4.36074 13.374 6.18103C13.374 6.63591 13.4721 7.08411 13.6562 7.49744L19.8701 7.49744C20.0544 7.08425 20.1523 6.63593 20.1523 6.18103C20.1522 4.36094 18.6335 2.87753 16.7637 2.87732Z" fill="white" stroke="white" stroke-width="0.1"/>
<path d="M31.0625 14.1219C32.2436 14.1221 33.3097 14.8281 33.7129 15.8827L33.748 16.0145C33.7905 16.2793 33.6656 16.5448 33.4336 16.6864L33.3086 16.7469C33.2299 16.7756 33.1489 16.7889 33.0693 16.7889C32.8264 16.7889 32.595 16.6619 32.4717 16.4491L32.4258 16.3524C32.2234 15.823 31.6764 15.4639 31.0625 15.4637C30.4869 15.4637 29.9695 15.7791 29.7402 16.2548L29.6982 16.3524C29.582 16.6564 29.2651 16.829 28.9502 16.7811L28.8154 16.7469C28.4604 16.6179 28.2779 16.231 28.4111 15.8827L28.4951 15.6893C28.949 14.7426 29.955 14.1219 31.0625 14.1219Z" fill="white" stroke="white" stroke-width="0.1"/>
<path d="M16.7634 12.4659C17.1415 12.466 17.45 12.7651 17.45 13.1368V13.1632C18.4126 13.261 19.2543 13.5618 19.8591 13.9982C20.4732 14.4413 20.8473 15.0273 20.8474 15.6827C20.8474 16.0545 20.5381 16.3536 20.1599 16.3536C19.7819 16.3535 19.4734 16.0544 19.4734 15.6827C19.4733 15.4544 19.2758 15.1982 18.905 14.9767C18.5487 14.7639 18.0449 14.5919 17.45 14.5148V17.5929C18.2199 17.8052 19.0602 18.0759 19.7117 18.5177C20.3757 18.968 20.8473 19.5992 20.8474 20.5265C20.8474 21.182 20.4734 21.7688 19.8591 22.212C19.2543 22.6484 18.4125 22.9482 17.45 23.046V23.0734C17.4498 23.445 17.1415 23.7442 16.7634 23.7443C16.3853 23.7443 16.0761 23.445 16.0759 23.0734V23.046C15.1137 22.9482 14.2724 22.6483 13.6677 22.212C13.0534 21.7688 12.6794 21.1821 12.6794 20.5265C12.6797 20.155 12.988 19.8557 13.366 19.8556C13.744 19.8556 14.0532 20.1549 14.0535 20.5265C14.0535 20.755 14.2507 21.0119 14.6218 21.2335C14.978 21.4462 15.4814 21.6163 16.0759 21.6935V18.6154C15.3062 18.4031 14.4664 18.1332 13.8152 17.6915C13.1511 17.2411 12.6794 16.6103 12.6794 15.6827C12.6795 15.0272 13.0535 14.4413 13.6677 13.9982C14.2725 13.5619 15.1136 13.2611 16.0759 13.1632V13.1368C16.0759 12.765 16.3852 12.4659 16.7634 12.4659ZM17.45 21.6935C18.0448 21.6163 18.5487 21.4463 18.905 21.2335C19.276 21.0119 19.4734 20.7549 19.4734 20.5265C19.4733 20.2047 19.3437 19.94 19.0203 19.6945C18.7021 19.4531 18.1977 19.2324 17.45 19.0001V21.6935ZM16.0759 14.5148C15.4812 14.5919 14.978 14.764 14.6218 14.9767C14.2508 15.1983 14.0536 15.4543 14.0535 15.6827C14.0535 16.0048 14.1827 16.27 14.5066 16.5157C14.8246 16.757 15.3288 16.9759 16.0759 17.2081V14.5148Z" fill="white" stroke="white" stroke-width="0.1"/>
</svg>
